Coordinates
version=1
nRows=9
nColumns=24
inDegrees=yes

Units are S.I. units (second, meters, Newtons, ...)
Angles are in degrees.

endheader
time	pelvis_tilt	pelvis_list	pelvis_rotation	pelvis_tx	pelvis_ty	pelvis_tz	hip_flexion_r	hip_adduction_r	hip_rotation_r	knee_angle_r	ankle_angle_r	subtalar_angle_r	mtp_angle_r	hip_flexion_l	hip_adduction_l	hip_rotation_l	knee_angle_l	ankle_angle_l	subtalar_angle_l	mtp_angle_l	lumbar_extension	lumbar_bending	lumbar_rotation
      4.47000000	      1.05809887	      6.16075298	      6.21716501	      0.73452422	      0.91613504	     -0.16779671	     25.61830238	     -5.79221022	     -5.79020869	     -9.37429159	      2.45164774	     -2.97971702	      0.00000000	    -21.20550287	      6.85002906	      8.72786114	    -13.97796993	     14.55274665	     -3.92852624	      0.00000000	    -27.94548587	     -5.00335893	    -13.20006361
      4.48000000	      1.42817814	      5.59731207	      6.09457898	      0.75045474	      0.91582540	     -0.16656121	     25.51610719	     -4.83973788	     -4.22793390	    -11.27013143	      0.10111120	     -5.73935144	      0.00000000	    -21.37691076	      6.05244488	      7.75291584	    -15.96040097	     13.56340297	     -2.71779318	      0.00000000	    -28.05560377	     -4.27627973	    -12.73283378
      4.49000000	      1.72810056	      5.01267436	      5.98101027	      0.76635132	      0.91582678	     -0.16537164	     25.50868335	     -3.87607384	     -2.88034240	    -13.27129407	     -2.06889082	     -8.07571737	      0.00000000	    -21.26573752	      5.24624659	      6.68039308	    -18.24062310	     12.14656900	     -1.62252089	      0.00000000	    -28.11419078	     -3.52784580	    -12.29383938
      4.50000000	      2.10695900	      4.42284937	      5.74618395	      0.78226552	      0.91624514	     -0.16397547	     25.40183212	     -2.83968801	     -1.59897626	    -15.30400539	     -3.71467437	    -10.02885201	      0.00000000	    -21.01660324	      4.43159815	      5.22930182	    -20.82024522	     10.24457489	     -0.47466645	      0.00000000	    -28.27457441	     -2.82151254	    -11.69993486
      4.51000000	      2.56239174	      3.79340760	      5.50437224	      0.79810806	      0.91709796	     -0.16255793	     25.14104508	     -1.75671273	     -0.51765619	    -17.30850855	     -4.62583203	    -11.51788205	      0.00000000	    -20.60942560	      3.53005451	      3.61602955	    -23.69854078	      7.83370998	      0.54529026	      0.00000000	    -28.55762726	     -2.06565425	    -11.08676936
      4.52000000	      3.05506436	      3.17622821	      5.35115402	      0.81370859	      0.91835781	     -0.16114739	     24.72196631	     -0.71832492	      0.29382760	    -19.19838544	     -4.78268302	    -12.62647258	      0.00000000	    -19.98063562	      2.54943426	      2.04291845	    -26.86953163	      4.86494972	      1.36344184	      0.00000000	    -28.95256020	     -1.31034815	    -10.57281149
      4.53000000	      3.43277373	      2.53953399	      5.32069763	      0.82906536	      0.91979911	     -0.15994522	     24.27840391	      0.25088248	      0.69961351	    -20.88780392	     -4.24179699	    -13.30680002	      0.00000000	    -18.96818368	      1.48483288	      0.64368185	    -30.29383447	      1.35220973	      1.80016397	      0.00000000	    -29.24525219	     -0.48958185	    -10.14481716
      4.54000000	      3.71910253	      1.89012451	      5.46302573	      0.84399500	      0.92133925	     -0.15882114	     23.76124731	      1.15277942	      0.79727938	    -22.28771894	     -3.22021497	    -13.79867881	      0.00000000	    -17.57658563	      0.31290968	     -0.50061936	    -33.96671856	     -2.47201561	      1.86037895	      0.00000000	    -29.49095851	      0.36414766	     -9.88402749
      4.55000000	      3.83087846	      1.25780811	      5.69037409	      0.85848924	      0.92287963	     -0.15790799	     23.27804444	      1.94364757	      0.58318267	    -23.38076333	     -1.90145413	    -13.96148619	      0.00000000	    -15.77812988	     -0.82022874	     -1.26674348	    -37.74128329	     -6.66028693	      1.32995072	      0.00000000	    -29.57296197	      1.21135722	     -9.64609048
